<?xml version="1.0" standalone="no"?>
<svg style="width: 585px; height: 585px; justify-content: center; align-self: center; transform: scale(-1, 1);" viewBox="-900 -300 2600 2600" xmlns="http://www.w3.org/2000/svg"><g transform="rotate(359 580.4699172973633 1018.4956283569336)"><g transform="translate(-172 456)"><path d="M667.834 1592.07C684.941 1595.67 702.504 1597.49 720.033 1597.49C748.379 1597.49 776.183 1592.81 802.671 1583.59L802.926 1583.5L803.187 1583.43C818.41 1579.6 836.335 1570.2 842.065 1557.81C844.741 1552.02 844.464 1546.12 841.221 1539.77L840.099 1537.57L840.891 1535.23C852.961 1499.72 782.781 1459.29 736.342 1432.53C722.147 1424.35 709.889 1417.29 701.673 1411.43L689.373 1402.66L704.437 1400.78C707.274 1400.42 708.618 1397.62 708.497 1395.73C708.312 1392.85 704.95 1392.24 702.163 1392.24C699.022 1392.24 693.433 1393.09 684.633 1397.12L681.547 1398.54L678.73 1396.66C674.363 1393.73 669.82 1390.56 664.841 1386.96L652.539 1378.07L667.695 1376.33C728.932 1369.29 848.992 1353 965.062 1323.03C1091.29 1290.44 1179.9 1250.67 1228.45 1204.8L1228.59 1204.67C1267 1170.71 1292.26 1117.91 1292.95 1070.14C1293.44 1036.34 1281.56 1007.05 1258.61 985.415C1225.68 961.591 1181.04 950.007 1122.17 950.007C1080.07 950.007 1036.51 955.609 994.391 961.027C966.669 964.593 940.484 967.962 916.253 969.525L910.747 969.881L909.928 964.506C899.559 896.507 896.631 826.945 893.798 759.674C891.115 695.941 888.341 630.037 879.22 565.75C863.14 442.82 844.91 303.483 800.568 174.123C792.301 151.555 781.368 136.747 766.163 127.52C752.042 118.95 733.644 114.959 708.265 114.959C707.618 114.959 706.176 114.968 706.176 114.968L706.033 114.962C695.591 114.553 684.803 113.632 674.371 112.741C660.525 111.56 646.209 110.338 632.826 110.338C631.191 110.338 629.57 110.356 627.908 110.394C622.144 110.487 617.602 111.311 614.019 112.912L608.479 115.388L606.043 109.895C603.675 104.555 601.557 98.8243 599.749 92.8599L599.496 92.0264L599.501 89.927L599.501 89.8809C599.52 82.3722 599.54 74.6095 598.924 67.1157C596.859 42.0207 588.527 24.5649 573.451 13.7514C560.475 4.44423 542.716 0.0768455 517.561 0.00492599L514.736 0C495.061 0 474.732 0.959584 461.341 12.4214C454.283 18.4626 450.024 28.159 449.657 39.0247C449.512 43.3153 449.935 47.7368 450.321 51.1092L450.46 52.321L450.1 53.4874C438.831 90.0777 421.66 114.897 397.606 129.362L396.16 130.231L393.544 130.227C265.203 130.227 162.696 189.665 104.907 297.593L104.722 297.94L104.49 298.26C93.228 313.866 82.396 330.631 72.289 348.095C70.949 350.926 69.187 353.799 67.324 356.835C59.439 369.69 57.613 375.066 63.081 379.634L66.284 382.308L64.83 386.189C54.199 414.566 44.22 443.737 34.568 471.947C30.266 484.521 25.819 497.521 21.367 510.295C20.072 514.764 18.3 519.252 16.585 523.594L16.5836 523.597C12.8312 533.1 9.28716 542.075 10.355 550.66L10.478 551.65L10.266 552.625C8.28802 561.668 9.05102 570.492 12.358 576.836L12.644 577.384L12.808 577.979C14.855 585.353 22.793 609.934 39.001 616.593L39.987 616.998L40.77 617.715C52.079 628.044 67.183 636.516 86.946 643.618L92.643 645.665L90.505 651.256C44.747 770.863 26.746 896.973 9.48702 1037.65C2.02602 1091.93 -4.46198 1155.56 3.98802 1215.91C13.266 1282.16 38.8 1332.01 82.052 1368.31L83.944 1369.9L84.141 1372.34C85.709 1391.74 97.049 1420.68 121.867 1420.91L124.313 1420.93L126.047 1422.63C132.183 1428.66 138.883 1431.46 147.134 1431.46C158.421 1431.46 170.814 1426.11 182.801 1420.94L183.52 1420.63L183.67 1420.57C216.82 1408.3 253.763 1400.04 296.606 1395.34L299.065 1395.07L301.003 1396.58C301.644 1397.09 302.603 1397.37 303.637 1397.37C305.004 1397.37 306.342 1396.87 307.128 1396.07L308.357 1394.81L310.084 1394.41C313.052 1393.73 316.19 1393.4 319.679 1393.4C327.611 1393.4 335.837 1395.19 343.094 1396.77C348.941 1398.04 354.466 1399.25 358.577 1399.25C363.318 1399.25 363.993 1397.85 364.54 1395.56L365.522 1391.45L369.793 1391.03C385.161 1389.54 400.766 1387.32 415.855 1385.17C429.455 1383.23 443.517 1381.22 457.469 1379.74L471.306 1378.27L462.89 1389.19C452.876 1402.19 452.203 1423.03 461.254 1439.88L462.699 1442.57L461.316 1445.29C452.575 1462.49 454.961 1477.53 468.823 1492.62C481.459 1506.38 501.622 1517.66 517.824 1526.72C520.025 1527.95 522.169 1529.15 524.282 1530.35C565.666 1554.32 614.301 1580.83 667.834 1592.07ZM701.918 970.847C712.823 951.988 717.401 929.68 715.162 906.32C706.865 861.194 705.22 811.674 709.983 750.517C711.319 726.327 712.645 702.133 713.97 677.941C716.983 622.924 720.099 566.035 723.31 510.092L735.246 509.632C739.407 539.855 743.696 570.582 747.845 600.295C763.608 713.215 779.908 829.98 792.803 945.24C793.049 947.385 793.236 949.552 793.418 951.649C794.093 959.453 794.73 966.824 798.172 972.906L802.452 980.475L793.739 981.641C780.13 983.465 763.193 985.733 746.906 985.733C731.08 985.733 717.413 983.643 705.123 979.345L698.37 976.983L701.918 970.847Z" transform="translate(106.9999 -77.0026)" fill="#FFFFFF" fill-rule="evenodd" stroke="none"></path><g transform="translate(100 -54)"><path d="M0 0L1304.94 0L1304.94 1579.99L0 1579.99L0 0Z" transform="translate(0 0.001674564)" fill="none" stroke="none"></path><g><path d="M999.583 931.858C1092.6 919.895 1198 906.339 1268.44 957.565C1335.93 1020.74 1300.31 1131.14 1238.57 1185.72C1126.19 1291.87 829.644 1340.97 674.365 1358.82C678.875 1362.08 683.435 1365.28 688.075 1368.38C726.464 1350.78 725.924 1381.42 711.165 1383.26C719.144 1388.95 731.354 1395.98 745.346 1404.04C794.679 1432.46 866.172 1473.65 852.554 1513.71C866.344 1540.73 833.884 1559.9 810.644 1565.75C766.415 1581.15 718.394 1584.08 672.554 1574.43C620.415 1563.49 572.804 1538.44 527.214 1512.04C525.158 1510.88 523.024 1509.68 520.832 1508.46C487.014 1489.54 439.657 1463.05 461.924 1419.25C452.615 1401.92 451.724 1378.27 464.085 1362.24C434.754 1365.35 405.714 1370.69 376.355 1373.54C373.664 1384.8 361.753 1382.2 347.772 1379.16C337.846 1377 326.878 1374.61 317.424 1376.79C313.835 1380.46 307.275 1380.98 303.245 1377.83C265.655 1381.96 227.825 1389.36 191.755 1402.72L191.178 1402.97C169.963 1412.13 146.811 1422.12 127.785 1403.43C100.064 1403.18 86.0446 1373.06 84.1336 1349.43C-14.3054 1266.84 -6.19638 1127.82 9.51462 1013.53C25.5446 882.899 43.5536 749.554 90.8646 625.912C73.1246 619.539 56.1146 611.078 42.6646 598.794C26.8136 592.283 17.2546 571.637 12.9946 556.29C8.50462 547.681 8.41462 537.092 10.3746 528.138C9.12044 518.076 13.0896 508.028 16.9679 498.21C18.6897 493.851 20.3937 489.538 21.6146 485.289C36.0746 443.809 49.7546 402.082 65.1736 360.928C54.8352 352.292 61.9379 340.714 68.162 330.568C69.9745 327.613 71.7125 324.78 72.9236 322.176C82.9046 304.918 93.7946 287.956 105.575 271.634C165.775 159.221 272.314 100.858 400.455 101.144C435.644 79.985 449.775 37.7762 457.525 0C470.064 48.5722 440.185 112.353 386.955 127.424C394.594 138.367 400.545 150.494 407.445 161.891C443.144 218.925 528.335 243.393 589.964 216.521C625.234 197.835 633.144 154.838 631.865 118.835C615.755 136.004 601.884 92.1207 599.554 80.9701C596.335 65.4065 596.964 49.1829 602.884 34.3187C603.295 33.2844 604.674 33.4814 604.795 34.565C606.714 51.6357 610.515 68.5783 617.515 84.3586C622.495 82.1324 628.265 81.4035 633.785 81.3148C648.941 80.959 664.901 82.321 680.857 83.6826C691.399 84.5823 701.94 85.4818 712.245 85.8854C763.285 85.4914 794.285 100.031 812.205 148.987C855.625 275.604 873.855 409.598 891.144 541.751C909.915 674.032 901.695 808.253 921.835 940.317C945.869 938.766 972.189 935.381 999.583 931.858ZM368.655 113.23C259.804 128.36 162.745 197.736 115.144 295.462C105.785 313.035 97.6846 331.209 90.2746 349.658C131.445 356.18 171.394 368.778 209.605 384.873C212.223 386.372 216.399 388.057 221.101 389.954C234.164 395.225 251.288 402.134 250.355 411.253C273.705 384.362 293.424 354.791 313.254 325.407C318.565 323.5 306.274 347.349 300.323 358.894C298.835 361.781 297.744 363.898 297.424 364.651C279.275 399.265 258.464 433.682 231.134 461.992C233.681 464.502 238.497 467.255 243.68 470.219C253.472 475.819 264.577 482.169 264.185 489.041C347.525 539.889 425.825 598.282 500.015 661.325C502.545 659.847 505.884 659.68 508.665 662.161C599.915 737.714 607.924 862.39 596.875 971.355C687.835 985.648 721.724 943.449 702.505 857.465C696.897 818.237 699.212 778.556 701.511 739.15C701.66 736.602 701.808 734.055 701.955 731.508C709.005 617.628 713.894 503.6 722.125 389.798C724.105 361.519 728.915 333.681 735.165 306.081C735.375 304.623 737.594 305.076 737.644 306.406C740.804 333.632 742.495 360.918 741.314 388.341C766.335 364.218 805.355 344.32 840.265 340.665C825.674 278.224 817.935 158.118 774.564 113.486C763.545 103.685 748.884 100.553 734.615 98.3855C704.995 93.8839 675.405 89.1065 645.814 84.3685C648.165 85.8165 649.924 88.2692 650.174 91.7365C655.035 143.205 647.335 210.158 593.075 233.67C524.695 259.508 433.535 233.523 396.594 169.515C389.844 156.729 386.344 141.944 379.884 129.119C379.245 129.217 378.605 129.276 377.974 129.335C376.484 125.632 375.295 121.849 373.685 118.174C374.984 115.19 370.964 112.481 368.035 114.639C368.335 114.274 368.665 113.92 369.025 113.595C368.905 113.466 368.775 113.348 368.655 113.23ZM623.625 96.1396C622.375 94.0021 621.185 91.8153 620.045 89.599C623.905 89.7468 627.665 89.8847 631.464 90.5151C631.353 94.5158 631.46 98.5376 631.567 102.567C631.623 104.698 631.68 106.831 631.705 108.965C629.804 104.453 626.085 100.336 623.625 96.1396ZM23.6046 531.112C21.7336 549.089 31.4146 566.032 43.7336 579.3C64.0046 599.967 92.7846 608.921 120.125 616.486C188.564 635.132 256.984 653.819 325.325 672.8C351.094 680.129 377.185 686.344 402.655 694.589C414.115 698.244 428.605 699.15 434.554 710.872C434.617 710.702 434.732 710.373 434.892 709.918C436.6 705.038 443.366 685.71 445.205 693.801C437.855 713.551 439.685 735.843 442.825 756.322C445.665 774.84 448.884 793.398 449.865 812.144C449.312 831.612 447.621 851.057 445.93 870.504C442.595 908.844 439.261 947.187 444.655 985.707C465.415 970.853 463.325 940.553 469.075 918.203C471.695 904.944 474.585 891.774 477.605 878.604C479.464 870.468 493.035 872.241 492.415 880.574C490.894 901.23 490.605 921.906 490.115 942.612C490.439 945.874 490.109 951.192 489.74 957.13C488.926 970.229 487.925 986.344 493.355 990.051C503.538 994.779 506.966 974.923 509.211 961.915C509.885 958.012 510.452 954.726 511.064 952.905C515.455 932.495 519.535 912.026 523.304 891.498C524.634 884.298 536.365 886.12 536.105 893.202C535.275 915.553 534.304 937.893 533.405 960.244C533.316 962.4 533.148 964.735 532.971 967.181C532.027 980.281 530.853 996.559 540.535 1005.51C548.611 997.826 549.07 986.19 549.512 975.015C549.688 970.555 549.861 966.168 550.515 962.135C552.424 940.327 554.335 918.508 556.245 896.689C556.955 888.612 569.644 888.415 569.214 896.689C568.195 925.551 569.015 957.003 575.134 984.111C575.495 986.022 575.875 987.924 576.265 989.835C576.535 989.509 576.795 989.193 577.045 988.859C576.155 987.48 575.594 985.914 575.415 984.22C583.275 983.964 585.405 969.73 584.285 962.736C585.035 953.388 585.045 943.882 585.415 934.594C587.314 886.819 587.275 838.257 574.365 791.793C555.214 720.062 512.344 684.207 456.504 639.997C381.935 577.577 300.464 522.72 221.575 466.681C216.535 467.715 213.255 463.421 213.924 458.791C217.035 444.163 235.445 430.993 244.384 418.336C237.938 419.834 231.952 416.028 226.366 412.477C224.863 411.522 223.39 410.586 221.945 409.776C215.435 406.121 208.844 402.595 202.185 399.196C165.984 380.293 127.605 365.902 88.5936 353.904C70.2546 401.126 54.6146 449.226 37.7646 496.961C33.4546 508.368 31.0046 521.242 23.6046 531.112ZM813.445 922.477C815.222 933.694 817.004 944.948 814.984 955.969C843.415 950.729 871.924 945.961 900.655 942.74C879.945 805.436 892.125 665.56 870.775 528.098C863.924 472.562 854.054 417.557 844.174 362.513C807.615 368.946 772.265 381.702 740.915 401.413C740.355 418.828 739.505 436.234 738.535 453.639C744.955 482.383 750.554 511.165 756.094 540.066C778.685 660.832 795.734 782.582 811.174 904.412C811.531 910.395 812.487 916.43 813.445 922.477ZM728.085 888.12C718.655 837.005 718.915 785.213 722.945 733.538C727.375 653.395 731.674 573.233 736.275 493.1C756.245 638.137 777.535 783.006 793.814 928.506C794.974 938.632 794.795 949.349 799.905 958.382C771.665 962.165 741.564 965.977 714.105 956.373C726.155 935.539 730.405 911.82 728.085 888.12ZM43.3436 890.927C40.3836 909.495 37.5846 928.092 35.0246 946.71C71.0046 843.448 117.195 743.723 173.665 649.809C147.605 642.254 121.174 635.861 95.3646 627.469C80.4546 715.679 55.4446 802.116 43.3436 890.927ZM247.068 859.322C242.103 835.72 236.535 811.668 234.004 787.674C233.89 786.596 235.549 786.481 235.845 787.429C239.992 800.715 242.818 814.49 246.316 827.96C249.827 841.478 253.091 855.057 256.548 868.588C257.652 872.91 258.759 877.228 259.867 881.547C260.531 881.576 261.193 881.599 261.852 881.613C264.384 881.672 265.143 884.851 263.106 886.174C262.511 886.56 261.915 886.899 261.317 887.202C271.903 928.378 282.75 969.462 294.588 1010.32C308.382 1057.94 323.912 1104.98 336.324 1152.98C336.611 1154.09 336.097 1154.87 335.345 1155.21C341.801 1177.05 347.211 1199.18 353.113 1221.19C354.342 1225.77 347.574 1228.74 345.26 1224.45C341.697 1217.84 340.91 1208.81 339.166 1201.55C337.201 1193.37 335.334 1185.17 333.47 1176.97C330.505 1163.92 327.845 1150.71 325.652 1137.48C317.48 1116.95 310.162 1096.17 303.686 1075C289.183 1027.59 275.805 979.856 263.897 931.747C260.381 917.546 256.935 903.325 253.647 889.069C247.712 889.161 241.672 886.554 235.605 883.936C226.369 879.95 217.071 875.938 207.992 881.38C207.296 881.798 206.591 880.848 207.139 880.292C213.136 874.216 221.425 873.686 229.478 875.19C234.711 876.167 239.728 878.021 244.851 879.418C247.108 880.033 249.425 880.485 251.767 880.82C250.152 873.664 248.578 866.5 247.068 859.322ZM559.496 1126.24C557.047 1114.1 555.029 1101.89 553.193 1089.65C552.811 1087.11 552.384 1084.53 551.952 1081.93C550.389 1072.5 548.775 1062.76 549.127 1053.45C549.144 1052.97 549.812 1052.89 549.956 1053.34C553.768 1065.18 554.91 1078.29 557.328 1090.49C559.667 1102.28 562.237 1114.04 564.826 1125.78C570.142 1149.89 577.659 1173.63 582.209 1197.89C582.697 1200.49 579.186 1201.4 578.232 1198.97C569.121 1175.77 564.4 1150.56 559.496 1126.24ZM870.128 1063.06C848.523 1068.81 826.898 1074.3 805.12 1079.37C766.366 1088.39 727.622 1097.45 688.967 1106.88C669.673 1111.58 650.336 1116.15 631.082 1121C621.945 1123.31 612.867 1125.87 603.926 1128.84C599.464 1130.32 595.103 1132.02 590.743 1133.76C589.973 1134.07 589.211 1134.4 588.452 1134.73C585.446 1136.04 582.472 1137.34 579.119 1137.1C578.869 1137.08 578.713 1136.84 578.836 1136.61C581.033 1132.57 585.56 1130.66 589.557 1128.62C593.964 1126.36 598.556 1124.43 603.152 1122.59C613.361 1118.49 623.994 1115.48 634.599 1112.56C673.143 1101.95 712.018 1092.45 750.853 1082.94C789.873 1073.39 828.895 1064.24 868.433 1057C872.416 1056.28 874.139 1061.99 870.128 1063.06ZM98.9046 1348.21C97.4446 1326.52 101.094 1299.52 117.165 1283.35C153.945 1252.26 205.445 1242.48 251.405 1231.22C272.814 1226.99 294.515 1224.18 316.304 1222.79C318.058 1222.65 319.92 1222.63 321.814 1222.61C328.267 1222.55 335.093 1222.49 339.314 1217.6C342.125 1224.26 344.974 1230.91 347.825 1237.56C256.325 1225.57 65.4236 1267.22 118.884 1392.57C107.564 1380.3 100.064 1365.37 98.9046 1348.21ZM317.705 1270.51C337.625 1266.28 359.174 1278.7 370.835 1293.9C372.905 1296.59 374.745 1299.45 376.355 1302.43C368.585 1285.15 360.915 1267.83 353.384 1250.46C273.655 1243.39 138.594 1254.55 121.495 1350.07C120.255 1366.22 124.685 1385.19 137.835 1396.06C150.719 1406.82 165.805 1400.38 179.974 1394.34C184.477 1392.42 188.887 1390.54 193.105 1389.26C217.924 1380.61 243.435 1374.26 269.325 1369.99C268.855 1350.48 268.325 1330.67 263.935 1311.71C272.655 1294.46 289.205 1361.67 288.974 1367.18C292.545 1366.74 296.105 1366.34 299.685 1365.97C299.025 1346.22 298.935 1326.29 301.665 1306.7C301.755 1305.9 302.825 1305.73 303.105 1306.51C306.974 1316.34 310.045 1326.53 312.714 1336.76C316.355 1345.64 313.775 1358.46 324.094 1363.02C334.525 1367.37 346.035 1368.05 356.945 1370.99C359.094 1370.89 361.205 1370.63 363.224 1370.14C366.634 1369.31 365.785 1364.66 362.894 1364.18C363.144 1363.56 363.335 1362.85 363.545 1362.05C364.115 1362.01 364.695 1361.98 365.275 1361.94C363.776 1355.8 365.341 1349.59 366.923 1343.31C368.413 1337.4 369.917 1331.43 368.894 1325.41C367.964 1297.96 344.464 1276.74 317.705 1273.1C316.394 1272.84 316.424 1270.79 317.705 1270.51ZM551.295 1326.56C555.695 1318.61 561.935 1311.21 569.585 1306.21C562.855 1297.05 557.705 1287.03 553.495 1276.51C529.174 1300.3 487.174 1309.26 455.464 1321.23C457.906 1323.81 460.318 1326.39 462.7 1328.94C496.858 1365.49 524.932 1395.53 551.295 1326.56ZM385.795 1323.42C385.165 1324.75 384.265 1326.16 384.245 1327.75C383.605 1322.25 382.355 1316.81 380.455 1311.6C382.234 1315.54 384.015 1319.48 385.795 1323.42ZM683.945 1388.39C682.214 1388.79 680.474 1389.22 678.745 1389.68C667.515 1392.69 656.625 1396.84 646.035 1401.56C645.155 1401.95 644.435 1401.01 645.025 1400.28C651.844 1391.99 660.325 1384.36 669.765 1378.13C660.045 1370.75 650.665 1362.77 642.134 1354.19C630.365 1357.21 619.535 1361.89 608.634 1367.51C599.575 1367.5 630.275 1344.77 633.224 1344.62C624.634 1335.08 618.314 1324.1 610.984 1313.67C610.755 1314.57 610.335 1315.6 609.865 1316.33C603.365 1310.46 593.415 1311.56 585.634 1316.82C570.884 1321.7 565.405 1338 559.125 1350.08C540.915 1389.9 504.765 1392.69 476.285 1360.66C446.224 1415.6 519.314 1448.15 560.984 1464.67C593.785 1479.05 630.085 1495.07 663.045 1509.57C673.245 1514.19 683.355 1518.97 694.554 1520.67C724.995 1527 756.564 1526.03 787.045 1520.48C796.474 1518.77 805.814 1516.6 815.064 1514.1C820.375 1512.66 828.775 1511.65 832.285 1507.2C839.358 1481.69 775.138 1443.95 727.591 1416C708.395 1404.71 691.917 1395.03 683.945 1388.39ZM388.365 1359.95C390.984 1359.66 393.605 1359.35 396.224 1359.02C419.835 1356.07 443.314 1351.89 467.015 1349.78C460.504 1341.36 455.205 1332.21 450.205 1322.92C437.525 1326.92 424.775 1330.68 411.945 1334.16C402.964 1337.42 388.825 1340.86 384.445 1329.54C385.254 1337 384.695 1344.59 383.185 1351.94C386.545 1353.02 388.634 1356.49 388.365 1359.95ZM819.265 1544.47C713.234 1592.1 600.984 1539.06 510.564 1482.52C489.695 1470.87 462.245 1454.35 466.464 1426.92C481.835 1449.4 507.174 1462.21 531.495 1473.31C572.355 1491.78 613.484 1509.66 654.445 1527.9C658.314 1540.74 676.814 1541.23 687.995 1544.08C737.765 1553.73 791.265 1548.93 838.105 1529.68C835.394 1537.71 826.525 1541.4 819.265 1544.47Z" transform="translate(-0.0001181765 0.001674564)" fill="#000000" fill-rule="evenodd" stroke="none"></path></g></g></g><g transform="translate(225 0)"><g><g><path d="M185.626 0C242.407 0 301.136 44.012 321.95 72.0972C339.449 95.7099 348.871 202.486 348.871 274.645C348.871 289.737 357.199 318.186 354.769 332.622C345.863 385.521 307.06 429.886 230.262 429.886C153.463 429.886 98.3997 399.445 41.3173 317.713C13.6206 317.713 0.197717 296.473 0.00278191 262.954C-0.192153 229.435 26.7371 217.24 26.7371 217.24C26.7371 217.24 17.1355 84.9611 41.3173 50.522C65.499 16.0828 128.845 -8.27315e-15 185.626 0Z" transform="translate(56.41525 75.25961)" fill="#FFFFFF" stroke="none"></path><path d="M274.456 7.28737C239.126 0.976367 203.996 -2.07363 168.146 1.55637C150.635 3.33737 133.196 6.21637 116.196 10.8274C101.246 14.8974 84.2463 19.6864 71.3463 28.8374C66.4163 22.4874 58.5363 17.1574 50.2063 19.6674C41.3563 22.3374 39.9063 30.1064 41.6563 38.1474C41.8288 38.9319 42.0203 39.4037 42.1459 39.713C42.3425 40.1973 42.3774 40.2832 41.9244 40.5476L41.4163 40.8274C39.7263 41.7474 37.7153 41.9174 36.0263 43.0264C32.9653 45.0374 30.9363 48.3664 30.0453 51.8774C28.0963 59.5264 31.8353 66.1764 36.5563 71.8274C19.9063 95.9174 10.5263 124.337 6.82627 153.287C4.85627 168.667 4.45627 184.457 5.93627 199.897C6.63527 207.207 7.40627 214.647 8.98627 221.827C10.3353 227.966 12.4163 233.797 14.7063 239.606L15.0053 240.386C6.83527 247.547 1.84627 258.547 0.516266 269.167C-1.69373 286.766 3.30627 308.337 13.3163 323.087C16.2953 327.466 19.8163 331.317 23.9363 334.417C22.4563 337.287 21.2663 340.337 20.1863 343.136L19.7935 344.15C17.8906 349.058 15.7137 354.843 17.8263 359.936C20.1463 365.547 26.3753 366.726 31.4463 364.087C32.0863 363.755 32.7193 363.399 33.3503 363.033C34.5763 363.052 35.8333 362.887 37.0913 362.605C38.4253 367.075 41.1703 371.184 44.7483 373.629C51.5473 378.276 61.4233 377.832 68.2513 373.184C75.1443 384.313 83.8243 394.421 93.4363 403.266L93.6568 403.47C94.0369 403.822 94.4257 404.186 94.8229 404.559C99.9048 409.324 106.361 415.378 113.585 412.497C120.626 409.696 119.465 401.247 115.186 396.407C110.786 391.446 104.806 387.537 100.016 382.886C94.9463 377.976 90.0263 372.987 85.3753 367.676C80.4463 362.047 75.5853 356.346 70.5763 350.797C67.8663 347.787 65.0663 344.837 62.4063 341.776C61.3663 340.183 60.2507 338.652 59.1808 337.222L57.6253 335.157C57.7763 334.926 57.9363 334.707 58.0763 334.466C60.1663 330.987 58.0363 327.147 54.5763 325.856C49.3463 323.917 43.7763 324.556 38.6353 322.497C33.4563 320.426 29.5363 316.207 26.6753 311.537C20.1753 300.917 16.3263 286.957 16.4363 274.537C16.5263 263.926 20.8853 252.386 30.3753 246.787C34.5423 244.33 41.3453 243.214 47.3933 244.233C49.9383 246.436 52.7063 248.484 55.0193 250.939L54.7263 251.667C54.4763 252.297 55.4763 252.897 55.8963 252.346L56.0673 252.124C56.7393 252.936 57.3643 253.791 57.9013 254.722C60.5933 259.394 61.7203 264.323 67.4233 266.281C71.0817 267.537 74.5448 266.638 78.0434 265.729C79.5464 265.339 81.0559 264.947 82.5903 264.723C86.8643 264.1 88.8083 258.87 87.9903 255.212C85.4563 243.874 83.1253 232.516 80.3183 221.238L79.3443 217.421C86.1473 205.805 92.3913 193.842 98.3753 181.766C98.5563 184.037 98.7663 186.317 99.0163 188.587C99.4463 192.446 104.786 196.237 107.906 192.266C118.175 179.186 128.476 166.436 137.056 152.127C142.776 142.587 147.835 132.587 152.316 122.356C152.776 123.886 153.276 125.407 153.816 126.886C155.585 131.647 159.976 135.056 165.236 133.616C170.206 132.257 173.246 127.556 175.516 123.306L177.817 118.981C179.345 116.094 180.863 113.2 182.376 110.306C189.956 120.067 199.266 128.276 210.045 134.547C212.755 136.127 216.986 134.787 217.635 131.466C219.326 122.846 221.005 114.237 222.686 105.627C237.076 116.067 252.236 125.356 268.106 133.417C271.686 135.237 276.196 133.026 276.206 128.766C276.215 121.946 276.766 115.186 278.085 108.497C285.026 113.827 292.795 117.827 301.166 120.426C309.166 122.917 317.826 124.077 326.175 123.266C326.246 123.257 326.326 123.247 326.396 123.247L327.616 123.946L327.848 124.073C330.084 125.239 332.218 124.691 333.706 123.356C337.726 153.657 344.576 183.476 347.156 214.037C348.566 230.726 349.266 247.516 349.056 264.276C348.946 272.356 348.635 280.426 348.125 288.497C347.666 295.596 346.465 302.776 345.956 309.897C344.146 311.856 343.226 314.606 344.096 317.567C346.686 326.337 350.795 334.257 351.715 343.537C352.616 352.686 351.826 361.957 349.536 370.846C345.045 388.237 334.835 404.397 320.675 415.497C291.175 438.616 249.856 447.337 213.096 442.196C191.835 439.216 172.266 433.096 155.396 419.377C154.936 418.997 154.146 419.476 154.516 420.056C178.096 456.707 224.786 465.577 265.135 458.987C308.726 451.866 352.125 424.466 366.505 381.047C370.316 369.556 372.026 357.096 370.946 345.016C370.076 335.257 368.016 324.446 362.896 315.737C364.396 307.476 364.416 298.707 364.816 290.356L364.947 287.46C365.271 279.734 365.398 272.001 365.335 264.276C365.206 247.167 364.146 230.087 361.996 213.106C358.98 189.239 354.786 164.745 346.5 141.931C348.723 141.443 350.829 139.454 351.027 137.046C351.62 129.833 350.615 122.775 348.489 116.024C353.587 113.692 357.985 110.117 359.005 104.147C359.516 101.127 359.045 98.1474 357.816 95.6164C366.286 87.6274 373.476 76.3064 372.916 65.1474C372.536 57.7574 367.156 52.2074 359.916 51.2474C358.556 51.0674 357.186 51.0374 355.826 51.1274C356.496 49.5564 357.085 47.9464 357.436 46.2664C358.806 39.6864 356.375 32.5374 350.175 29.2974C345.304 26.7516 339.903 27.5423 334.904 29.1461L334.175 29.3864C334.755 28.3464 335.326 27.3064 335.875 26.2374C338.625 20.8564 335.206 14.8974 329.175 14.5674C312.556 13.6574 295.896 12.4364 279.255 11.6764C278.686 9.54737 277.156 7.77637 274.456 7.28737ZM41.0667 261.738C34.9557 260.667 28.7457 264.707 28.8067 271.257C28.8167 272.207 30.2157 272.408 30.4657 271.477L30.5265 271.288C31.2093 269.445 34.0773 268.822 35.6257 269.267C36.4283 269.496 37.0957 269.979 37.7172 270.509L38.1257 270.867C40.0167 272.527 41.2267 274.727 42.6067 276.797L42.9212 277.273C45.9584 281.892 48.9263 286.864 53.5567 289.967C60.3067 294.467 67.5357 285.828 64.1157 279.408C61.7823 275.057 57.2886 271.745 53.3745 268.672L51.8074 267.432C48.5931 264.901 45.17 262.452 41.0667 261.738Z" transform="translate(50.00023 54.99953)" fill="#000000" fill-rule="evenodd" stroke="none"></path></g></g><g transform="translate(159 186)"><g><path d="M140.63 0.473197L139.193 0.179116C137.503 -0.15929 135.804 -0.0161244 134.311 0.591153C132.847 1.18684 131.572 2.2242 130.68 3.72083C129.495 5.71373 129.337 7.38618 129.887 9.59525C130.311 11.3022 131.242 12.5864 132.46 13.5139C133.744 14.4911 135.37 15.0612 137.06 15.2595C144.854 16.175 152.53 17.8896 159.992 20.3235C163.488 21.4643 166.788 23.0096 170.058 24.6132L172.877 26.002C175.477 27.2735 178.163 28.499 181.557 29.3885C181.824 29.4584 182.087 29.5243 182.349 29.5865C183.29 29.2909 183.45 28.9329 183.649 28.6733L183.73 28.5721C183.972 28.2679 184.271 27.8025 183.988 25.6306C176.583 10.2711 156.267 3.74181 140.63 0.473197ZM43.5878 4.83023L45.4652 4.50163C51.273 3.49719 58.4944 2.53203 62.6028 7.20123C64.7819 9.67723 65.5318 14.2792 62.6028 16.6492C58.7671 19.7539 54.6298 19.6513 50.2182 19.5419C48.7043 19.5044 47.1582 19.466 45.5808 19.5562C40.4928 19.8482 35.6028 20.6902 30.7018 22.0912C19.9498 25.1642 11.1888 30.7742 2.00585 36.9342C0.800849 37.7422 -0.429151 36.2012 0.145849 35.0742C5.44685 24.6912 15.7198 16.1622 26.0098 10.9632C31.5019 8.18823 37.5118 5.88623 43.5878 4.83023ZM29.9632 50.1461C30.7976 39.7899 46.5702 37.4381 48.1392 47.6861C49.5442 56.8661 47.8902 65.2991 43.7552 73.5641C39.8042 81.4601 29.8737 77.7763 29.1227 70.5863C28.3809 63.4843 28.9069 59.2482 29.4428 54.933C29.6341 53.3921 29.8267 51.8412 29.9632 50.1461ZM159.205 41.8262C155.401 40.7152 152.226 42.6812 150.027 45.5612C149.773 45.8932 149.566 46.2222 149.38 46.5482C142.515 52.8562 145.101 65.6452 150.501 72.0492C153.814 75.9762 161.145 74.8452 163.413 70.3852C167.587 62.1722 171.09 45.2992 159.205 41.8262ZM128.748 119.039C136.872 107.66 125.366 96.9569 117.814 92.3669C115.836 90.9469 117.406 86.2431 121.634 86.9701C160.031 93.5671 140.136 159.708 91.112 123.413C85.2754 118.704 92.3434 108.334 98.6342 112.366C98.9532 112.611 99.2876 112.869 99.6364 113.139C106.704 118.603 119.636 128.601 128.748 119.039ZM93.5865 188.926C86.8642 186.184 80.8663 181.61 76.4812 175.766C74.9566 173.735 74.5614 171.589 74.8812 169.627C75.2408 167.421 76.546 165.422 78.326 164.08C80.1115 162.735 82.345 162.072 84.5043 162.41C86.3806 162.704 88.2484 163.731 89.7265 165.862L90.0354 166.288C92.6424 169.815 96.0396 172.708 99.9104 174.574C103.641 176.372 107.814 177.211 112.132 176.723C120.356 175.794 126.024 171.346 132.049 165.306C132.796 164.544 133.543 163.757 134.294 162.958C134.768 162.234 135.426 161.768 136.157 161.524C136.968 161.253 137.886 161.268 138.726 161.562C139.537 161.845 140.262 162.381 140.747 163.094C141.209 163.772 141.471 164.61 141.386 165.574C140.835 171.833 137.562 177.419 132.914 181.805C127.752 186.677 120.909 190.047 114.466 191.229C107.368 192.531 100.136 191.598 93.5865 188.926Z" transform="translate(53.00005 52.00027)" fill="#000000" fill-rule="evenodd" stroke="none"></path></g></g><g transform="translate(123 338)"><g><path d="M268.388 67.08C270.922 71.4266 273.06 76.0406 274.758 80.8047C275.556 83.0421 281.542 107.261 277.755 121.138C274.111 134.497 267.519 147.166 259.18 158.287C251.52 168.499 241.863 176.987 229.899 181.682C214.289 187.81 195.674 186.087 179.386 184.505C159.043 182.523 139.049 177.998 119.705 171.451C110.028 168.188 100.531 164.424 91.173 160.35C81.9752 156.356 72.1982 152.421 63.5797 147.246C56.1695 142.791 49.8479 135.783 43.796 129.708C34.2586 120.137 24.931 110.156 16.692 99.4255C9.0022 89.4149 3.24985 80.144 1.30244 67.4804C-1.70965 47.8457 1.09105 27.2169 3.76515 7.52062C3.98141 5.92774 4.19685 4.34095 4.40831 2.76129C4.4882 2.10059 5.52682 1.75021 5.74653 2.43094C5.72656 2.06054 5.70658 1.69115 5.68661 1.32075C5.6167 -0.261938 7.92364 -0.471162 8.35307 0.959366C13.6061 18.3389 22.1847 34.1548 34.5183 47.5191C51.5017 65.9128 73.2059 78.6794 94.2819 91.9486C94.989 91.2819 95.8478 90.8083 96.7576 90.6282C99.8046 76.9215 109.88 64.1789 119.845 55.5076C149.016 30.1415 195.754 19.2389 231.876 34.7054C247.146 41.2524 260.009 52.7056 268.388 67.08ZM163.836 57.1894C143.492 62.2859 125.821 76.2258 117.725 95.193C117.113 99.3325 117.163 103.521 118.04 107.674C135.307 119.809 156.513 126.186 177.735 123.714C184.346 115.511 191.665 101.523 202.782 99.9091C211.011 98.7154 216.836 104.137 222.687 109.584C225.693 112.382 228.706 115.187 232.056 117.104C232.606 117.419 233.206 117.725 233.827 118.023C240.161 117.498 246.515 116.018 251.84 112.401C257.296 108.697 259.362 103.683 260.334 97.7918C260.056 96.6676 259.757 95.5494 259.439 94.4392C257.202 86.6309 254.017 79.0127 249.333 72.3566C245.398 66.7396 240.165 61.9545 233.744 59.4228C226.224 56.4597 217.665 55.828 209.686 55.0572C194.456 53.5756 178.777 53.4564 163.836 57.1894Z" fill="#000000" fill-rule="evenodd" stroke="none"></path></g></g><g transform="translate(47 241)"><g><path d="M355.09 63.4319C352.262 71.1279 347.958 79.1399 342.695 85.6169C321.401 103.649 300.71 93.6649 290.204 69.2259C286.212 51.9549 296.811 33.3509 308.042 20.6459C324.262 4.38889 350.733 12.9209 358.191 32.2469C358.644 34.7509 358.918 37.2489 359.049 39.7389C358.894 47.8299 357.919 54.7449 355.09 62.4319M150.41 47.9109C178.462 14.5439 230.942 12.7599 229.603 64.1149C223.577 129.119 122.106 113.164 150.41 47.9109ZM363.913 20.0759C362.93 18.4109 361.839 16.7999 360.648 15.2589C360.208 14.9969 359.955 12.6729 358.337 12.5009C336.71 -11.3581 298.717 2.17889 284.989 25.9529C282.482 28.9589 280.437 32.4779 278.929 36.1959C265.403 33.7149 249.634 34.1969 237.054 39.3059C224.58 6.73389 186.815 3.82589 161.928 17.7429C146.449 25.3559 136.412 41.2989 121.358 50.0569C85.9688 52.6039 47.9878 44.6749 13.2378 53.5519C-14.1682 59.2499 8.74178 73.1269 13.3378 63.8659C46.1008 54.1859 84.9158 62.3659 118.933 60.1849C122.47 66.1679 129.253 71.0639 136.013 70.8549C143.314 135.576 237.698 124.844 240.954 67.3109C244.647 61.4719 249.24 55.8839 255.814 52.2459C258.331 51.7249 260.762 51.0479 262.984 49.9999C266.782 49.4639 272.634 51.0739 276.128 54.2359C288.097 126.052 357.052 117.688 369.375 54.7739C369.62 54.5239 370.305 53.5859 370.831 52.0809C375.049 46.5039 385.375 44.4309 383.725 35.0159C382.256 25.5989 370.364 25.7109 363.913 20.0759Z" transform="translate(11.99972 10.99992)" fill="#000000" stroke="none"></path></g></g></g></g></svg>